<svg xmlns="http://www.w3.org/2000/svg" viewBox="60 0 192 192">
  <defs>
  </defs>
  <defs>
  </defs>
  <g stroke="none" fill="#488eff"
    transform="matrix(1.9727046498388938,0,0,1.9727046498388938,49.31245677858721,6.7244141436798515)">
    <path
      d="M88.383 78.631H13.617a3.252 3.252 0 0 0 0 6.502h74.766c1.797 0 3.251-1.454 3.251-3.251s-1.454-3.251-3.251-3.251zM13.617 62.377h21.471a3.252 3.252 0 0 0 2.276-5.574c-3.784-3.701-5.868-8.65-5.868-13.93 0-10.757 8.747-19.504 19.504-19.504 10.756 0 19.504 8.747 19.504 19.504 0 5.279-2.082 10.229-5.866 13.93a3.253 3.253 0 0 0-.739 3.553 3.253 3.253 0 0 0 3.013 2.021h21.472c1.797 0 3.251-1.453 3.251-3.25s-1.454-3.251-3.251-3.251h-14.85a25.848 25.848 0 0 0 3.473-13.003c0-14.339-11.666-26.005-26.006-26.005-14.339 0-26.005 11.667-26.005 26.005 0 4.646 1.209 9.095 3.478 13.003H13.617a3.252 3.252 0 0 0 0 6.501z">
    </path>
  </g>
</svg>