<svg xmlns="http://www.w3.org/2000/svg" viewBox="0 175 300 100">
  <g fill="#2e3034" transform="matrix(6.679894230453256,0,0,6.679894230453256,33.168639095544606,144.43783172429173)">
    <path
      d="M7.63 16.04L7.63 16.04L7.81 16.17L7.52 17.16L7.52 17.16Q6.26 17.09 0.98 17.09L0.98 17.09L0.98 16.85L0.98 16.85Q1.00 16.82 1.11 16.71L1.11 16.71L1.11 16.71Q1.22 16.60 1.28 16.53L1.28 16.53L1.28 16.53Q1.34 16.45 1.36 16.39L1.36 16.39L1.36 16.39Q1.40 16.22 1.40 15.42L1.40 15.42L1.40 9.18L1.40 9.18Q1.40 8.69 1.33 8.29L1.33 8.29L1.33 8.29Q1.21 7.76 0.17 7.70L0.17 7.70L0.17 7.38L0.28 7.26L4.41 7.26L4.53 7.38L4.53 7.75L4.53 7.75Q4.26 7.78 4.08 7.81L4.08 7.81L4.08 7.81Q3.90 7.83 3.74 7.89L3.74 7.89L3.74 7.89Q3.59 7.95 3.50 8.00L3.50 8.00L3.50 8.00Q3.40 8.05 3.33 8.16L3.33 8.16L3.33 8.16Q3.26 8.28 3.23 8.37L3.23 8.37L3.23 8.37Q3.20 8.46 3.18 8.66L3.18 8.66L3.18 8.66Q3.16 8.86 3.15 9.02L3.15 9.02L3.15 9.02Q3.15 9.17 3.15 9.47L3.15 9.47L3.15 13.55L3.15 13.55Q3.15 13.73 3.14 14.06L3.14 14.06L3.14 14.06Q3.14 14.39 3.14 14.62L3.14 14.62L3.14 14.62Q3.14 14.84 3.14 15.13L3.14 15.13L3.14 15.13Q3.14 15.42 3.17 15.62L3.17 15.62L3.17 15.62Q3.19 15.81 3.23 15.99L3.23 15.99L3.23 15.99Q3.27 16.17 3.35 16.26L3.35 16.26L3.35 16.26Q3.42 16.34 3.53 16.34L3.53 16.34L3.53 16.34Q4.86 16.34 7.63 16.04ZM8.81 9.05L8.81 9.05L8.81 9.05Q8.54 8.78 8.54 8.39L8.54 8.39L8.54 8.39Q8.54 8.01 8.81 7.74L8.81 7.74L8.81 7.74Q9.08 7.47 9.46 7.47L9.46 7.47L9.46 7.47Q9.84 7.47 10.11 7.74L10.11 7.74L10.11 7.74Q10.38 8.01 10.38 8.39L10.38 8.39L10.38 8.39Q10.38 8.78 10.11 9.05L10.11 9.05L10.11 9.05Q9.84 9.32 9.46 9.32L9.46 9.32L9.46 9.32Q9.08 9.32 8.81 9.05ZM11.77 15.42L11.77 15.42L12.01 15.65L12.01 15.80L12.01 15.80Q10.81 17.27 9.82 17.27L9.82 17.27L9.82 17.27Q9.27 17.27 8.98 16.88L8.98 16.88L8.98 16.88Q8.89 16.75 8.83 16.59L8.83 16.59L8.83 16.59Q8.78 16.43 8.75 16.28L8.75 16.28L8.75 16.28Q8.72 16.13 8.71 15.81L8.71 15.81L8.71 15.81Q8.70 15.50 8.70 15.26L8.70 15.26L8.70 15.26Q8.70 15.01 8.71 14.48L8.71 14.48L8.71 14.48Q8.72 13.95 8.72 13.54L8.72 13.54L8.72 11.89L8.72 11.89Q8.65 11.21 8.23 11.21L8.23 11.21L8.23 11.21Q7.88 11.21 7.26 11.66L7.26 11.66L7.04 11.35L7.04 11.35Q7.45 11.01 7.76 10.80L7.76 10.80L7.76 10.80Q8.06 10.59 8.51 10.39L8.51 10.39L8.51 10.39Q8.97 10.19 9.34 10.19L9.34 10.19L9.34 10.19Q9.86 10.19 10.05 10.51L10.05 10.51L10.05 10.51Q10.14 10.66 10.18 10.88L10.18 10.88L10.18 10.88Q10.21 11.10 10.21 11.68L10.21 11.68L10.21 11.68Q10.21 11.96 10.19 12.53L10.19 12.53L10.19 12.53Q10.17 13.10 10.17 13.38L10.17 13.38L10.17 13.38Q10.17 13.60 10.17 13.91L10.17 13.91L10.17 13.91Q10.17 14.23 10.16 14.41L10.16 14.41L10.16 14.41Q10.16 14.59 10.16 14.83L10.16 14.83L10.16 14.83Q10.17 15.07 10.18 15.21L10.18 15.21L10.18 15.21Q10.19 15.35 10.22 15.52L10.22 15.52L10.22 15.52Q10.24 15.68 10.28 15.77L10.28 15.77L10.28 15.77Q10.33 15.85 10.40 15.93L10.40 15.93L10.40 15.93Q10.47 16.02 10.56 16.05L10.56 16.05L10.56 16.05Q10.65 16.08 10.77 16.08L10.77 16.08L10.77 16.08Q10.93 16.08 11.13 15.96L11.13 15.96L11.13 15.96Q11.33 15.84 11.45 15.73L11.45 15.73L11.45 15.73Q11.57 15.62 11.77 15.42ZM14.33 7.22L14.54 7.39L14.44 11.24L14.59 11.28L14.59 11.28Q15.91 10.19 17.20 10.19L17.20 10.19L17.20 10.19Q17.67 10.19 18.05 10.35L18.05 10.35L18.05 10.35Q18.44 10.52 18.69 10.79L18.69 10.79L18.69 10.79Q18.94 11.07 19.10 11.43L19.10 11.43L19.10 11.43Q19.27 11.80 19.34 12.17L19.34 12.17L19.34 12.17Q19.41 12.55 19.41 12.95L19.41 12.95L19.41 12.95Q19.41 13.86 19.08 14.69L19.08 14.69L19.08 14.69Q18.74 15.51 18.07 16.08L18.07 16.08L18.07 16.08Q16.64 17.29 15.09 17.29L15.09 17.29L15.09 17.29Q14.64 17.29 14.27 17.17L14.27 17.17L14.27 17.17Q13.90 17.04 13.58 16.77L13.58 16.77L13.58 16.77Q13.27 16.50 13.09 16.00L13.09 16.00L13.09 16.00Q12.91 15.51 12.91 14.83L12.91 14.83L12.91 9.99L12.91 9.99Q12.91 9.71 12.90 9.28L12.90 9.28L12.90 9.28Q12.89 8.85 12.89 8.66L12.89 8.66L12.89 8.66Q12.89 8.37 12.57 8.23L12.57 8.23L12.57 8.23Q12.26 8.10 11.57 8.05L11.57 8.05L11.57 7.74L11.70 7.62L14.33 7.22ZM14.44 11.95L14.44 11.95L14.40 13.83L14.40 13.83Q14.40 14.33 14.46 14.76L14.46 14.76L14.46 14.76Q14.51 15.18 14.65 15.62L14.65 15.62L14.65 15.62Q14.79 16.05 15.07 16.30L15.07 16.30L15.07 16.30Q15.36 16.56 15.77 16.56L15.77 16.56L15.77 16.56Q16.21 16.56 16.57 16.38L16.57 16.38L16.57 16.38Q16.92 16.20 17.13 15.92L17.13 15.92L17.13 15.92Q17.35 15.65 17.49 15.27L17.49 15.27L17.49 15.27Q17.64 14.89 17.69 14.52L17.69 14.52L17.69 14.52Q17.75 14.15 17.75 13.76L17.75 13.76L17.75 13.76Q17.75 11.22 16.08 11.22L16.08 11.22L16.08 11.22Q15.80 11.22 15.48 11.35L15.48 11.35L15.48 11.35Q15.16 11.47 14.95 11.60L14.95 11.60L14.95 11.60Q14.75 11.73 14.44 11.95ZM23.29 16.63L23.29 16.63L21.81 17.17L21.53 17.08L21.53 17.08Q21.62 13.81 21.62 12.97L21.62 12.97L21.62 12.97Q21.62 12.92 21.62 12.81L21.62 12.81L21.62 12.81Q21.62 12.61 21.62 12.51L21.62 12.51L21.62 12.51Q21.62 12.41 21.62 12.24L21.62 12.24L21.62 12.24Q21.61 12.07 21.60 11.98L21.60 11.98L21.60 11.98Q21.59 11.89 21.56 11.75L21.56 11.75L21.56 11.75Q21.54 11.62 21.50 11.55L21.50 11.55L21.50 11.55Q21.46 11.48 21.41 11.41L21.41 11.41L21.41 11.41Q21.36 11.34 21.29 11.31L21.29 11.31L21.29 11.31Q21.21 11.28 21.12 11.28L21.12 11.28L21.12 11.28Q20.92 11.28 20.65 11.41L20.65 11.41L20.65 11.41Q20.38 11.53 20.17 11.70L20.17 11.70L19.94 11.38L19.94 11.38Q20.27 11.12 20.46 10.98L20.46 10.98L20.46 10.98Q20.66 10.83 20.98 10.64L20.98 10.64L20.98 10.64Q21.29 10.44 21.59 10.34L21.59 10.34L21.59 10.34Q21.88 10.25 22.16 10.25L22.16 10.25L22.16 10.25Q22.69 10.25 22.88 10.56L22.88 10.56L22.88 10.56Q23.08 10.88 23.08 11.46L23.08 11.46L23.23 11.53L23.23 11.53Q23.77 10.98 24.28 10.63L24.28 10.63L24.28 10.63Q24.80 10.29 25.35 10.29L25.35 10.29L25.35 10.29Q25.91 10.29 26.18 10.65L26.18 10.65L26.18 10.65Q26.45 11.02 26.45 11.55L26.45 11.55L25.40 12.36L25.22 12.24L25.22 12.24Q25.15 11.92 24.95 11.70L24.95 11.70L24.95 11.70Q24.75 11.48 24.42 11.48L24.42 11.48L24.42 11.48Q24.03 11.48 23.75 11.68L23.75 11.68L23.75 11.68Q23.47 11.87 23.34 12.20L23.34 12.20L23.34 12.20Q23.21 12.52 23.15 12.84L23.15 12.84L23.15 12.84Q23.09 13.16 23.09 13.49L23.09 13.49L23.09 13.49Q23.09 14.42 23.29 16.63ZM32.29 10.72L33.13 10.19L33.33 10.32L33.33 10.32Q33.10 12.65 33.10 14.14L33.10 14.14L33.10 14.14Q33.10 14.72 33.11 14.98L33.11 14.98L33.11 14.98Q33.11 15.24 33.15 15.55L33.15 15.55L33.15 15.55Q33.20 15.85 33.29 15.96L33.29 15.96L33.29 15.96Q33.39 16.06 33.56 16.06L33.56 16.06L33.56 16.06Q33.89 16.06 34.54 15.48L34.54 15.48L34.81 15.77L34.81 15.77Q34.56 16.06 34.34 16.29L34.34 16.29L34.34 16.29Q34.11 16.52 33.81 16.76L33.81 16.76L33.81 16.76Q33.51 17.00 33.17 17.13L33.17 17.13L33.17 17.13Q32.83 17.26 32.50 17.26L32.50 17.26L32.50 17.26Q31.75 17.26 31.63 16.33L31.63 16.33L31.45 16.26L31.45 16.26Q30.08 17.30 28.85 17.30L28.85 17.30L28.85 17.30Q28.31 17.30 27.90 17.02L27.90 17.02L27.90 17.02Q27.50 16.74 27.28 16.29L27.28 16.29L27.28 16.29Q27.06 15.84 26.96 15.36L26.96 15.36L26.96 15.36Q26.86 14.89 26.86 14.42L26.86 14.42L26.86 14.42Q26.86 12.29 27.72 11.20L27.72 11.20L27.72 11.20Q28.57 10.12 30.24 10.12L30.24 10.12L30.24 10.12Q31.30 10.12 32.29 10.72L32.29 10.72ZM31.66 12.46L31.66 12.46L31.66 12.46Q31.66 10.65 30.37 10.65L30.37 10.65L30.37 10.65Q29.98 10.65 29.67 10.80L29.67 10.80L29.67 10.80Q29.35 10.94 29.15 11.20L29.15 11.20L29.15 11.20Q28.95 11.46 28.80 11.78L28.80 11.78L28.80 11.78Q28.66 12.09 28.58 12.47L28.58 12.47L28.58 12.47Q28.51 12.85 28.47 13.19L28.47 13.19L28.47 13.19Q28.44 13.52 28.44 13.87L28.44 13.87L28.44 13.87Q28.44 14.27 28.51 14.65L28.51 14.65L28.51 14.65Q28.57 15.03 28.73 15.39L28.73 15.39L28.73 15.39Q28.88 15.76 29.19 15.99L29.19 15.99L29.19 15.99Q29.49 16.21 29.91 16.21L29.91 16.21L29.91 16.21Q30.73 16.21 31.55 15.45L31.55 15.45L31.55 15.45Q31.66 14.63 31.66 12.46Z">
    </path>
  </g>
</svg>